<svg width="32" height="32" viewBox="0 0 32 32" fill="none" xmlns="http://www.w3.org/2000/svg">
<g filter="url(#filter0_i_7288_14432)">
<path d="M16 2.66699C12.6863 2.66699 10 5.35329 10 8.66699C10 11.9807 12.6863 14.667 16 14.667C19.3137 14.667 22 11.9807 22 8.66699C22 5.35329 19.3137 2.66699 16 2.66699Z" fill="#1DAF61" fill-opacity="0.56"/>
</g>
<g filter="url(#filter1_i_7288_14432)">
<path d="M16.0018 16C10.8926 16 6.98232 19.0616 5.39457 23.3547C4.94066 24.582 5.25142 25.7917 5.97297 26.6516C6.67613 27.4896 7.76161 28 8.93093 28H23.0726C24.242 28 25.3274 27.4896 26.0306 26.6516C26.7522 25.7917 27.0629 24.582 26.609 23.3547C25.0213 19.0616 21.111 16 16.0018 16Z" fill="#1DAF61" fill-opacity="0.56"/>
</g>
<path d="M24 17.5C25.5188 17.5 26.75 18.7312 26.75 20.25V21.25H27.75C29.2688 21.25 30.5 22.4812 30.5 24C30.5 25.5188 29.2688 26.75 27.75 26.75H26.75V27.75C26.75 29.2688 25.5188 30.5 24 30.5C22.4812 30.5 21.25 29.2688 21.25 27.75V26.75H20.25C18.7312 26.75 17.5 25.5188 17.5 24C17.5 22.4812 18.7312 21.25 20.25 21.25H21.25V20.25C21.25 18.7312 22.4812 17.5 24 17.5Z" fill="white" stroke="white" stroke-width="3"/>
<g filter="url(#filter2_i_7288_14432)">
<path d="M24 19C24.6904 19 25.25 19.5596 25.25 20.25V22.75H27.75C28.4404 22.75 29 23.3096 29 24C29 24.6904 28.4404 25.25 27.75 25.25H25.25V27.75C25.25 28.4404 24.6904 29 24 29C23.3096 29 22.75 28.4404 22.75 27.75V25.25H20.25C19.5596 25.25 19 24.6904 19 24C19 23.3096 19.5596 22.75 20.25 22.75H22.75V20.25C22.75 19.5596 23.3096 19 24 19Z" fill="#1DAF61" fill-opacity="0.56"/>
</g>
<defs>
<filter id="filter0_i_7288_14432" x="10" y="-0.333008" width="12" height="15" filterUnits="userSpaceOnUse" color-interpolation-filters="sRGB">
<feFlood flood-opacity="0" result="BackgroundImageFix"/>
<feBlend mode="normal" in="SourceGraphic" in2="BackgroundImageFix" result="shape"/>
<feColorMatrix in="SourceAlpha" type="matrix" values="0 0 0 0 0 0 0 0 0 0 0 0 0 0 0 0 0 0 127 0" result="hardAlpha"/>
<feOffset dy="-3"/>
<feGaussianBlur stdDeviation="2"/>
<feComposite in2="hardAlpha" operator="arithmetic" k2="-1" k3="1"/>
<feColorMatrix type="matrix" values="0 0 0 0 1 0 0 0 0 1 0 0 0 0 1 0 0 0 0.48 0"/>
<feBlend mode="normal" in2="shape" result="effect1_innerShadow_7288_14432"/>
</filter>
<filter id="filter1_i_7288_14432" x="5.18213" y="13" width="21.6392" height="15" filterUnits="userSpaceOnUse" color-interpolation-filters="sRGB">
<feFlood flood-opacity="0" result="BackgroundImageFix"/>
<feBlend mode="normal" in="SourceGraphic" in2="BackgroundImageFix" result="shape"/>
<feColorMatrix in="SourceAlpha" type="matrix" values="0 0 0 0 0 0 0 0 0 0 0 0 0 0 0 0 0 0 127 0" result="hardAlpha"/>
<feOffset dy="-3"/>
<feGaussianBlur stdDeviation="2"/>
<feComposite in2="hardAlpha" operator="arithmetic" k2="-1" k3="1"/>
<feColorMatrix type="matrix" values="0 0 0 0 1 0 0 0 0 1 0 0 0 0 1 0 0 0 0.48 0"/>
<feBlend mode="normal" in2="shape" result="effect1_innerShadow_7288_14432"/>
</filter>
<filter id="filter2_i_7288_14432" x="19" y="18" width="10" height="11" filterUnits="userSpaceOnUse" color-interpolation-filters="sRGB">
<feFlood flood-opacity="0" result="BackgroundImageFix"/>
<feBlend mode="normal" in="SourceGraphic" in2="BackgroundImageFix" result="shape"/>
<feColorMatrix in="SourceAlpha" type="matrix" values="0 0 0 0 0 0 0 0 0 0 0 0 0 0 0 0 0 0 127 0" result="hardAlpha"/>
<feOffset dy="-1"/>
<feGaussianBlur stdDeviation="1"/>
<feComposite in2="hardAlpha" operator="arithmetic" k2="-1" k3="1"/>
<feColorMatrix type="matrix" values="0 0 0 0 1 0 0 0 0 1 0 0 0 0 1 0 0 0 0.48 0"/>
<feBlend mode="normal" in2="shape" result="effect1_innerShadow_7288_14432"/>
</filter>
</defs>
</svg>
